<!DOCTYPE svg PUBLIC "-//W3C//DTD SVG 20010904//EN" "http://www.w3.org/TR/2001/REC-SVG-20010904/DTD/svg10.dtd">
<svg version="1.0" xmlns="http://www.w3.org/2000/svg" width="1600px" height="1600px" viewBox="0 0 16000 16000" preserveAspectRatio="xMidYMid meet">
<g id="layer101" fill="#64c8d6" stroke="none">
 <path d="M7655 11730 c-187 -121 -364 -234 -393 -252 -52 -32 -493 -313 -1957 -1248 -407 -260 -801 -511 -875 -557 -74 -47 -143 -93 -153 -102 -17 -17 -17 -18 0 -33 10 -8 126 -84 258 -168 450 -286 1689 -1077 1916 -1222 l227 -145 178 114 c188 121 1121 715 1139 726 6 3 309 -185 674 -417 l664 -423 71 47 c59 39 1656 1058 2144 1368 79 50 158 101 175 115 l32 24 -130 84 c-71 46 -413 265 -760 486 -346 221 -890 567 -1207 770 -318 202 -603 384 -633 403 -30 19 -269 171 -531 338 -261 167 -480 305 -487 307 -7 2 -165 -95 -352 -215z"/>
 </g>
<g id="layer102" fill="#0d2481" stroke="none">
 <path d="M7570 15328 c-374 -18 -877 -88 -1215 -168 -44 -11 -120 -29 -170 -41 -49 -11 -112 -27 -140 -35 -27 -8 -75 -22 -105 -30 -30 -9 -80 -24 -110 -34 -30 -10 -86 -28 -125 -40 -86 -26 -225 -75 -285 -100 -25 -10 -88 -35 -140 -55 -52 -20 -123 -50 -157 -66 -35 -16 -65 -29 -68 -29 -22 0 -386 -181 -570 -283 -226 -126 -253 -143 -520 -321 -278 -187 -543 -389 -716 -548 -312 -285 -472 -446 -691 -692 -81 -91 -248 -301 -348 -436 -39 -53 -248 -355 -267 -385 -65 -106 -89 -145 -128 -210 -17 -27 -36 -59 -42 -70 -7 -11 -20 -33 -28 -50 -9 -16 -26 -48 -39 -70 -24 -39 -230 -451 -266 -530 -34 -75 -46 -104 -141 -335 -65 -159 -188 -540 -248 -770 -36 -137 -82 -344 -105 -470 -8 -47 -23 -125 -32 -175 -9 -49 -20 -121 -24 -160 -5 -38 -13 -106 -19 -150 -40 -315 -46 -429 -46 -915 0 -392 3 -520 18 -665 77 -773 202 -1308 475 -2030 69 -183 260 -590 357 -760 31 -55 63 -113 71 -130 8 -16 20 -39 27 -50 12 -19 60 -99 82 -136 10 -18 66 -109 88 -143 7 -11 57 -85 112 -164 55 -79 111 -160 125 -180 14 -20 63 -86 110 -145 47 -60 107 -136 133 -170 47 -60 72 -89 272 -312 119 -132 296 -309 425 -424 58 -52 130 -117 160 -145 30 -28 91 -80 135 -114 44 -34 116 -92 160 -127 44 -36 112 -88 150 -115 121 -86 220 -155 256 -178 19 -12 61 -40 94 -61 219 -145 611 -363 835 -464 232 -104 310 -138 450 -192 52 -20 110 -43 128 -51 18 -8 38 -14 45 -14 7 0 32 -9 55 -20 22 -11 46 -20 52 -20 6 0 59 -16 118 -35 59 -19 130 -41 157 -49 28 -8 82 -24 120 -35 39 -12 84 -23 100 -25 17 -2 43 -9 59 -15 16 -6 36 -11 45 -10 9 1 19 0 24 -1 4 -1 12 -4 17 -5 6 -1 13 -4 18 -5 4 -2 12 -4 17 -5 6 -1 23 -7 38 -13 35 -15 54 -15 62 -2 8 13 -43 33 -67 27 -10 -3 -21 -1 -24 5 -3 5 -12 7 -19 4 -7 -2 -16 -2 -20 2 -4 4 -10 7 -13 8 -4 0 -14 4 -22 7 -8 4 -28 9 -45 11 -16 2 -43 9 -60 16 -16 7 -52 18 -80 25 -27 7 -75 21 -105 30 -30 9 -75 23 -100 30 -90 27 -285 97 -294 106 -6 5 -18 9 -28 9 -9 0 -32 6 -50 14 -18 8 -62 26 -98 41 -164 67 -295 124 -373 161 -105 51 -279 139 -355 180 -168 91 -198 108 -211 118 -15 12 -48 32 -71 42 -8 4 -73 46 -145 93 -71 47 -134 88 -140 91 -17 9 -87 57 -160 109 -38 28 -90 65 -115 83 -56 39 -222 169 -235 184 -5 6 -42 36 -80 66 -184 144 -571 520 -765 744 -114 130 -266 314 -290 349 -8 13 -47 65 -86 116 -76 101 -188 259 -195 275 -2 5 -34 54 -70 109 -269 408 -522 926 -724 1485 -11 30 -53 161 -99 310 -25 79 -84 303 -109 415 -120 528 -176 1027 -177 1575 0 216 23 699 35 740 2 8 9 62 15 120 16 153 64 445 95 585 82 362 136 559 228 830 185 546 466 1120 787 1602 280 421 526 720 895 1088 369 369 663 611 1085 892 1137 757 2486 1163 3870 1163 1132 0 2213 -262 3215 -779 498 -257 923 -544 1373 -927 252 -214 662 -640 893 -929 494 -615 918 -1392 1163 -2130 157 -470 273 -987 317 -1400 5 -55 12 -107 14 -115 12 -40 35 -522 35 -733 0 -596 -72 -1185 -211 -1725 -53 -205 -63 -240 -120 -412 -17 -52 -35 -108 -39 -125 -5 -16 -20 -61 -34 -100 -15 -38 -34 -90 -42 -115 -43 -123 -210 -501 -302 -685 -164 -325 -423 -746 -618 -1004 -44 -57 -86 -114 -94 -126 -24 -36 -177 -220 -290 -349 -194 -224 -581 -600 -765 -744 -38 -30 -74 -60 -80 -66 -13 -15 -179 -145 -235 -184 -25 -18 -76 -55 -115 -83 -73 -52 -143 -100 -160 -109 -5 -3 -68 -44 -140 -91 -71 -47 -137 -89 -145 -93 -23 -10 -56 -30 -71 -42 -8 -6 -43 -27 -79 -46 -36 -20 -92 -50 -125 -68 -64 -35 -242 -126 -362 -184 -77 -37 -207 -93 -373 -161 -36 -15 -80 -33 -98 -41 -18 -8 -41 -14 -50 -14 -10 0 -22 -4 -28 -9 -9 -9 -204 -79 -294 -106 -25 -7 -70 -21 -100 -30 -30 -9 -77 -23 -105 -30 -27 -7 -63 -18 -80 -25 -16 -7 -43 -14 -60 -16 -16 -2 -37 -7 -45 -11 -8 -3 -18 -7 -22 -7 -3 -1 -9 -4 -13 -8 -4 -4 -13 -4 -20 -2 -7 3 -16 1 -19 -4 -3 -6 -14 -8 -24 -5 -24 6 -75 -14 -67 -27 8 -13 27 -13 62 2 15 6 33 12 38 13 6 1 13 3 18 5 4 1 12 4 17 5 6 1 13 4 18 5 4 1 14 2 23 1 9 -1 29 4 45 10 16 6 43 13 59 15 17 2 62 13 100 25 39 11 93 27 120 35 28 8 98 30 157 49 59 19 112 35 118 35 6 0 30 9 52 20 23 11 48 20 55 20 7 0 27 6 45 14 18 8 76 31 128 51 139 54 222 89 448 191 227 103 617 319 837 465 33 21 75 49 94 61 36 23 135 92 256 178 39 27 106 79 150 115 44 35 116 93 160 127 44 34 105 86 135 114 30 28 102 93 160 145 129 115 306 292 425 424 200 223 225 252 272 312 26 34 86 110 133 170 47 59 96 125 110 145 14 20 70 101 125 180 55 79 105 153 112 164 22 34 78 125 88 143 22 37 70 117 82 136 7 11 19 34 27 50 8 17 40 75 71 130 97 170 288 577 357 760 80 212 195 553 231 685 8 30 24 89 35 130 67 245 138 610 176 915 45 356 51 468 51 965 0 486 -6 600 -46 915 -6 44 -14 112 -19 150 -4 39 -15 111 -24 160 -9 50 -24 128 -32 175 -31 170 -91 431 -139 595 -61 212 -165 524 -214 645 -95 231 -107 260 -141 335 -36 79 -242 491 -266 530 -13 22 -30 54 -39 70 -8 17 -21 39 -28 50 -6 11 -25 43 -42 70 -39 65 -63 104 -128 210 -19 30 -228 332 -267 385 -100 135 -267 345 -348 436 -219 246 -379 407 -691 692 -173 159 -441 364 -716 548 -268 179 -294 195 -520 321 -184 102 -548 283 -570 283 -3 0 -33 13 -68 29 -34 16 -105 46 -157 66 -52 20 -115 45 -140 55 -60 25 -199 74 -285 100 -38 12 -95 30 -125 40 -30 10 -80 25 -110 34 -30 8 -77 22 -105 30 -27 8 -90 24 -140 35 -49 12 -126 30 -170 41 -141 33 -411 83 -565 104 -503 69 -999 90 -1510 64z"/>
 <path d="M7544 8576 c-252 -161 -763 -486 -1134 -723 -371 -236 -994 -634 -1385 -883 -761 -485 -765 -488 -765 -499 0 -6 237 -160 665 -431 30 -19 316 -201 635 -405 319 -203 605 -386 635 -405 67 -43 981 -626 1450 -925 187 -119 345 -219 351 -221 12 -5 17 -2 2786 1765 290 185 552 352 583 371 297 189 366 234 375 246 13 15 41 -4 -537 364 -194 124 -379 242 -410 262 -32 20 -82 52 -111 70 -50 31 -350 223 -1992 1270 -366 233 -670 427 -676 431 -6 3 -217 -126 -470 -287z"/>
 <path d="M6515 1130 c-8 -12 20 -24 35 -15 6 3 8 11 5 16 -8 12 -32 12 -40 -1z"/>
 <path d="M9445 1130 c-8 -12 20 -24 35 -15 6 3 8 11 5 16 -8 12 -32 12 -40 -1z"/>
 <path d="M6675 1100 c-7 -11 22 -26 32 -16 3 3 12 1 19 -5 17 -14 48 -4 39 12 -4 6 -16 9 -26 6 -10 -3 -22 -1 -25 4 -7 12 -31 11 -39 -1z"/>
 <path d="M9286 1101 c-3 -5 -15 -7 -25 -4 -10 3 -22 0 -26 -6 -8 -14 20 -25 37 -15 7 5 21 8 30 9 10 0 18 5 18 10 1 13 -27 19 -34 6z"/>
 <path d="M6915 1060 c-8 -12 20 -24 35 -15 6 3 8 11 5 16 -8 12 -32 12 -40 -1z"/>
 <path d="M9045 1060 c-8 -12 20 -24 35 -15 6 3 8 11 5 16 -8 12 -32 12 -40 -1z"/>
 </g>
<g id="layer103" fill="#ffffff" stroke="none">
 <path d="M7525 15014 c-957 -62 -1879 -319 -2740 -763 -496 -256 -925 -546 -1365 -920 -174 -148 -603 -577 -751 -751 -393 -461 -691 -909 -952 -1430 -288 -574 -443 -1015 -602 -1715 -31 -140 -79 -432 -95 -585 -6 -58 -13 -112 -15 -120 -12 -41 -35 -524 -35 -740 1 -548 57 -1047 177 -1575 25 -112 84 -336 109 -415 46 -149 88 -280 99 -310 202 -559 454 -1076 724 -1485 36 -55 68 -105 71 -111 9 -19 144 -208 232 -325 195 -261 382 -474 668 -759 189 -190 270 -264 491 -450 67 -57 231 -184 295 -230 105 -75 156 -111 201 -143 60 -42 323 -211 343 -221 23 -11 56 -31 71 -42 13 -10 43 -27 211 -118 76 -41 250 -129 355 -180 78 -37 209 -94 373 -161 36 -15 80 -33 98 -41 18 -8 41 -14 50 -14 10 0 22 -4 28 -9 9 -9 204 -79 294 -106 25 -7 70 -21 100 -30 321 -98 725 -187 1040 -229 393 -53 579 -65 1000 -65 421 0 607 12 1000 65 315 42 719 131 1040 229 30 9 75 23 100 30 90 27 285 97 294 106 6 5 18 9 28 9 9 0 32 6 50 14 18 8 62 26 98 41 166 68 296 124 373 161 120 58 298 149 362 184 33 18 89 48 125 68 36 19 71 40 79 46 15 11 48 31 71 42 20 10 283 179 343 221 44 31 74 53 201 143 60 43 281 215 316 246 14 12 77 66 140 120 125 107 500 477 621 614 506 570 918 1212 1204 1875 102 236 120 281 139 335 8 25 27 77 42 115 14 39 29 84 34 100 4 17 22 73 39 125 57 172 67 207 120 413 139 539 211 1128 211 1724 0 211 -23 693 -35 733 -2 8 -9 60 -14 115 -44 413 -160 930 -317 1400 -181 547 -468 1132 -801 1632 -275 414 -520 711 -898 1089 -376 376 -671 619 -1095 901 -828 551 -1799 928 -2780 1079 -503 77 -1056 102 -1565 68z m969 -3396 c262 -167 501 -319 531 -338 30 -19 315 -201 633 -403 317 -203 888 -567 1267 -809 380 -242 716 -457 747 -477 l58 -37 -48 -30 c-39 -26 -1216 -776 -2092 -1334 -227 -144 -260 -167 -260 -180 0 -5 998 -646 1352 -868 29 -18 79 -50 111 -70 108 -69 841 -537 890 -568 l49 -31 -156 -99 c-86 -54 -181 -115 -211 -134 -31 -19 -293 -186 -583 -371 -2769 -1767 -2774 -1770 -2786 -1765 -6 2 -164 102 -351 221 -469 299 -1383 882 -1450 925 -30 19 -316 202 -635 405 -319 204 -605 386 -635 405 -576 365 -646 412 -628 425 20 14 1177 752 1893 1207 250 160 463 298 473 308 18 17 18 18 -10 37 -33 24 -999 641 -2118 1353 -132 84 -244 156 -248 160 -4 4 56 47 135 97 79 50 476 303 883 563 1369 874 1904 1215 1957 1248 29 18 206 131 393 252 187 120 345 217 352 215 7 -2 226 -140 487 -307z"/>
 </g>

</svg>